#N canvas 1945 427 639 469 12;
#X declare -lib tclpd;
#X obj 107 229 bitmap -uwidth 2 -uheight 3 -cellsize 16 -label empty -labelpos top -sendsymbol empty -receivesymbol empty -fgcolor #000000 -bgcolor #ffffff -lblcolor #000000;
#bitmap setdata 0 1 1 1 0 1;
#X obj 491 12 declare -lib tclpd;
#X obj 106 429 print;
#X msg 17 119 getcol 100;
#X msg 18 14 getcol;
#X msg 239 46 resize 2 3;
#X msg 228 13 resize 1;
#X msg 239 83 resize 10 10;
#X msg 368 14 setcell 1 1 1;
#X msg 371 46 setcell 1 0;
#X msg 368 83 setdata 0 1 1 0 0 1;
#X msg 374 117 save;
#X msg 475 111 getdata;
#X msg 26 166 foobar;
#X msg 17 64 getcol 1;
#X msg 17 39 getcol 0;
#X msg 17 92 getcol 2;
#X msg 107 41 getrow 0;
#X msg 116 81 getrow 100;
#X msg 125 124 getrow dfoo;
#X connect 0 0 2 0;
#X connect 3 0 0 0;
#X connect 4 0 0 0;
#X connect 5 0 0 0;
#X connect 6 0 0 0;
#X connect 7 0 0 0;
#X connect 8 0 0 0;
#X connect 9 0 0 0;
#X connect 10 0 0 0;
#X connect 11 0 0 0;
#X connect 12 0 0 0;
#X connect 13 0 0 0;
#X connect 14 0 0 0;
#X connect 15 0 0 0;
#X connect 16 0 0 0;
#X connect 17 0 0 0;
#X connect 18 0 0 0;
#X connect 19 0 0 0;
