#N canvas 1963 518 311 321 10;
#X declare -lib tclpd;
#N canvas 2317 364 514 645 in 1;
#X obj 49 479 outlet;
#X obj 49 8 tgl 15 0 empty empty empty 17 7 0 10 #fcfcfc #000000 #000000 0 1;
#X obj 33 61 bng 15 250 50 0 empty empty empty 17 7 0 10 #fcfcfc #000000 #000000;
#N canvas 2533 164 332 662 for_X_Y 1;
#X obj 68 113 inlet;
#X obj 68 197 until;
#X msg 111 169 0;
#X obj 68 226 f;
#X obj 102 225 + 1;
#X obj 68 141 t b b;
#X obj 68 339 until;
#X msg 95 310 0;
#X obj 68 368 f;
#X obj 101 368 + 1;
#X obj 68 281 t b b;
#X obj 68 253 t b f;
#X obj 68 397 pack f f;
#X msg 68 424 \$2 \$1;
#X obj 68 449 outlet;
#X msg 68 169 32, f 4;
#X msg 68 310 32;
#X connect 0 0 5 0;
#X connect 1 0 3 0;
#X connect 2 0 3 1;
#X connect 3 0 4 0;
#X connect 3 0 11 0;
#X connect 4 0 3 1;
#X connect 5 0 15 0;
#X connect 5 1 2 0;
#X connect 6 0 8 0;
#X connect 7 0 8 1;
#X connect 8 0 9 0;
#X connect 8 0 12 0;
#X connect 9 0 8 1;
#X connect 10 0 16 0;
#X connect 10 1 7 0;
#X connect 11 0 10 0;
#X connect 11 1 12 1;
#X connect 12 0 13 0;
#X connect 13 0 14 0;
#X connect 15 0 1 0;
#X connect 16 0 6 0;
#X restore 49 125 pd for_X_Y;
#X obj 68 273 sin;
#X obj 68 227 / 64;
#X obj 49 154 unpack f f;
#X obj 106 186 t f f;
#X obj 49 435 pack f f f;
#X msg 49 457 setcell \$1 \$2 \$3;
#X obj 68 296 + 0.5;
#X obj 111 273 sin;
#X obj 111 250 / 16;
#X obj 68 319 +;
#X obj 49 185 t f f f;
#X obj 68 250 +;
#X obj 228 155 f;
#X obj 263 154 + 0.1;
#X obj 49 94 t b b;
#X obj 68 364 wrap;
#X obj 68 410 i;
#X obj 111 227 expr sqrt(pow(sin($f3)*32-$f1 \, 2)+pow(cos($f3)*34-$f2 \, 2));
#X obj 68 387 * 1.8;
#X obj 68 342 * 1.2;
#X obj 111 296 + 0.6;
#X obj 49 35 metro 40;
#X obj 388 10 declare -lib tclpd;
#X text 68 6 Run;
#X text 54 60 Single step;
#X msg 243 126 0;
#X text 273 126 Reset;
#X connect 1 0 25 0;
#X connect 2 0 18 0;
#X connect 3 0 6 0;
#X connect 4 0 10 0;
#X connect 5 0 15 0;
#X connect 6 0 14 0;
#X connect 6 1 7 0;
#X connect 7 0 8 1;
#X connect 7 1 21 1;
#X connect 8 0 9 0;
#X connect 9 0 0 0;
#X connect 10 0 13 0;
#X connect 11 0 24 0;
#X connect 12 0 11 0;
#X connect 13 0 23 0;
#X connect 14 0 8 0;
#X connect 14 1 5 0;
#X connect 14 2 21 0;
#X connect 15 0 4 0;
#X connect 16 0 17 0;
#X connect 16 0 21 2;
#X connect 17 0 16 1;
#X connect 18 0 3 0;
#X connect 18 1 16 0;
#X connect 19 0 22 0;
#X connect 20 0 8 2;
#X connect 21 0 12 0;
#X connect 22 0 20 0;
#X connect 23 0 19 0;
#X connect 24 0 13 1;
#X connect 25 0 18 0;
#X connect 29 0 16 1;
#X restore 17 10 pd in;
#X obj 17 34 bitmap -uwidth 32 -uheight 32 -cellsize 8 -label empty -labelpos top -sendsymbol empty -receivesymbol empty -fgcolor #000000 -bgcolor #ffffff -lblcolor #000000;
#bitmap setdata 0 0 0 0 0 0 0 0 0 0 0 0 0 0 0 0 0 0 0 0 0 0 0 0 0 1 1 1 1 1 1 0 0 0 0 0 0 0 0 0 0 0 0 0 0 0 0 0 0 0 0 0 0 0 0 0 0 1 1 1 1 1 1 1 0 0 0 0 0 0 0 0 0 1 0 0 0 0 0 0 0 0 0 0 0 0 0 0 0 0 1 1 1 1 1 1 0 0 0 0 0 0 0 1 1 1 1 1 1 0 0 0 0 0 0 0 0 0 0 0 0 0 1 1 1 1 1 1 0 0 0 0 0 0 1 1 1 1 1 1 1 1 0 0 0 0 0 0 0 0 0 0 0 0 0 1 1 1 1 1 0 0 0 0 0 1 1 1 1 1 1 1 1 1 1 0 0 0 0 0 0 0 0 0 0 0 0 0 1 1 1 1 0 0 0 0 1 1 1 1 1 1 1 1 1 1 1 1 0 0 0 0 0 0 0 0 0 0 0 0 0 1 1 1 0 0 0 0 1 1 1 1 1 1 1 1 1 1 1 1 1 0 0 0 0 0 0 0 0 0 0 0 0 0 0 0 0 0 0 1 1 1 1 1 1 1 1 1 1 1 1 1 1 1 0 0 0 0 0 0 0 0 0 0 0 0 0 0 0 0 0 1 1 1 1 1 1 1 1 1 1 1 1 1 1 1 1 0 0 0 0 0 0 0 0 0 0 0 0 0 0 0 0 1 1 1 1 1 1 1 1 1 1 1 1 1 1 1 1 1 1 0 0 0 0 0 0 0 0 0 0 0 0 0 0 1 1 1 1 1 1 1 1 1 1 1 1 1 1 1 1 1 1 1 0 0 0 0 0 0 0 0 0 0 0 0 1 1 1 1 1 1 1 1 1 1 1 1 1 1 1 1 1 1 1 1 1 1 0 0 0 0 0 0 0 0 0 0 1 1 1 1 1 1 1 1 1 1 1 1 1 1 1 1 1 1 1 1 1 1 1 1 0 0 0 0 0 0 0 0 1 1 1 1 1 1 1 1 1 1 1 1 1 1 1 1 1 1 1 1 1 1 1 1 1 1 1 0 0 0 0 0 1 1 1 1 1 1 1 1 1 1 1 1 1 1 1 1 1 1 1 1 1 1 1 1 1 1 1 1 1 1 0 0 1 1 1 1 1 1 1 1 1 1 1 1 1 1 1 1 1 1 1 1 1 1 1 1 1 1 1 1 1 1 0 0 1 1 1 1 1 1 1 1 1 1 1 1 1 1 1 1 1 1 1 1 1 1 1 1 1 1 1 1 1 1 0 0 0 1 1 1 1 1 1 1 1 1 1 1 1 1 1 1 1 1 1 1 1 1 1 1 1 1 1 1 1 1 0 0 0 1 1 1 1 1 1 1 1 1 1 1 1 1 1 1 1 1 1 1 1 1 1 1 1 1 1 1 1 1 0 0 0 1 1 1 1 1 1 1 1 1 1 1 1 1 1 1 1 1 1 1 1 1 1 1 1 1 1 1 1 1 0 0 0 1 1 1 1 1 1 1 1 1 1 1 1 1 1 1 1 1 1 1 1 1 1 1 1 1 1 1 1 1 0 0 0 1 1 1 1 1 1 1 1 1 1 1 1 1 1 1 1 1 1 1 1 1 1 1 1 1 1 1 1 1 0 0 0 0 1 1 1 1 1 1 1 1 1 1 1 1 1 1 1 1 1 1 1 1 1 1 1 1 1 1 1 1 0 0 0 0 1 1 1 1 1 1 1 1 1 1 1 1 1 1 1 1 1 1 1 1 1 1 1 1 1 1 1 1 0 0 0 0 0 1 1 1 1 1 1 1 1 1 1 1 1 1 1 1 1 1 1 1 1 1 1 1 1 1 1 1 0 0 0 0 0 1 1 1 1 1 1 1 1 1 1 1 1 1 1 1 1 1 1 1 1 1 1 1 1 1 1 1 0 0 0 0 0 0 1 1 1 1 1 1 1 1 1 1 1 1 1 1 1 1 1 1 1 1 1 1 1 1 0 0 0 0 0 0 0 0 1 1 1 1 1 1 1 1 1 1 1 1 1 1 1 1 1 1 1 1 1 1 1 0 0 0 0 0 0 0 0 0 0 1 1 1 1 1 1 1 1 1 1 1 1 1 1 1 1 1 1 1 1 1 1 0 0 0 0 0 0 0 0 0 0 1 1 1 1 1 1 1 1 1 1 1 1 1 1 1 1 1 1 1 1 1 1 1 0 0 0 0 0 0 0 0 0 0 1 1 1 1 1 1 1 1 1 1 1 1 1 1 1 1 1 1 1 1 1 1 1 1;
#X connect 0 0 1 0;
