#N canvas 2332 23 684 608 10;
#X obj 216 84 bng 15 250 50 0 empty empty empty 17 7 0 10 #fcfcfc #000000 #000000;
#X floatatom 234 84 5 0 0 0 - - - 0;
#X obj 216 113 f;
#X obj 319 191 f;
#X obj 347 191 + 1;
#X msg 334 165 1;
#X obj 355 258 - 1;
#X obj 355 288 /;
#X floatatom 403 319 5 0 0 0 - - - 0;
#X msg 319 257 1 \$1;
#X obj 319 288 /;
#X floatatom 363 319 5 0 0 0 - - - 0;
#X obj 388 347 +;
#X floatatom 388 373 5 0 0 0 - - - 0;
#X obj 319 220 t f f f;
#X obj 194 344 *;
#X obj 219 344 *;
#X obj 194 434 f;
#X obj 194 375 +;
#X floatatom 204 467 5 0 0 0 - - - 0;
#X floatatom 227 416 5 0 0 0 - - - 0;
#X floatatom 157 415 5 0 0 0 - - - 0;
#X obj 341 61 loadbang;
#X obj 334 93 bng 15 250 50 0 empty empty empty 17 7 0 10 #fcfcfc #000000 #000000;
#X floatatom 280 219 5 0 0 0 - - - 0;
#X obj 213 294 f;
#X obj 194 140 t f b b;
#X obj 194 499 outlet;
#X obj 194 16 inlet;
#X obj 334 16 inlet;
#X obj 153 467 s avg;
#X obj 228 264 r avg;
#X obj 346 120 s init;
#X msg 288 351 0;
#X obj 288 326 r init;
#X text 262 415 previous weighted accumulated average;
#X text 9 412 incoming weighted value;
#X text 241 465 new weighted accumulated average;
#X text 112 530 counting averager - calculates and outputs the average of all incoming values between the resets. F.J. Kraan \, 2013-12-20;
#X text 374 17 reset counter and state;
#X text 217 62 testing;
#X text 425 366 always 1 being sum of present and incoming weight;
#X obj 401 502 outlet;
#X msg 319 143 0;
#X text 399 61 the vanilla [loadbang] doesn't have a inlet..;
#X connect 0 0 2 0;
#X connect 1 0 2 1;
#X connect 2 0 26 0;
#X connect 3 0 4 0;
#X connect 3 0 14 0;
#X connect 3 0 24 0;
#X connect 3 0 42 0;
#X connect 4 0 3 1;
#X connect 5 0 3 1;
#X connect 6 0 7 0;
#X connect 7 0 8 0;
#X connect 7 0 16 1;
#X connect 8 0 12 1;
#X connect 9 0 10 0;
#X connect 10 0 11 0;
#X connect 10 0 15 1;
#X connect 11 0 12 0;
#X connect 12 0 13 0;
#X connect 14 0 9 0;
#X connect 14 1 6 0;
#X connect 14 2 7 1;
#X connect 15 0 18 0;
#X connect 15 0 21 0;
#X connect 16 0 18 1;
#X connect 16 0 20 0;
#X connect 17 0 19 0;
#X connect 17 0 27 0;
#X connect 17 0 30 0;
#X connect 18 0 17 0;
#X connect 22 0 23 0;
#X connect 23 0 32 0;
#X connect 23 0 43 0;
#X connect 23 0 5 0;
#X connect 25 0 16 0;
#X connect 26 0 15 0;
#X connect 26 1 25 0;
#X connect 26 2 3 0;
#X connect 28 0 26 0;
#X connect 29 0 23 0;
#X connect 31 0 25 1;
#X connect 33 0 18 1;
#X connect 33 0 25 1;
#X connect 33 0 17 0;
#X connect 34 0 33 0;
#X connect 43 0 3 0;
