#N canvas 1920 297 450 300 10;
#X declare -lib tclpd;
#X floatatom 192 269 5 0 0 0 - - - 0;
#X floatatom 81 269 5 0 0 0 - - - 0;
#X floatatom 90 181 5 0 0 0 - - - 0;
#X obj 192 189 bng 15 250 50 0 empty empty empty 17 7 0 10 #fcfcfc #000000 #000000;
#X msg 155 113 1 \, 2 \, 3 \, 4 \, 5 \, 6 \, 7 \, 8 \, 9 \, 10;
#X obj 81 105 t b b;
#X obj 81 83 bng 15 250 50 0 empty empty empty 17 7 0 10 #fcfcfc #000000 #000000;
#X obj 155 89 t b b;
#X obj 155 67 bng 15 250 50 0 empty empty empty 17 7 0 10 #fcfcfc #000000 #000000;
#X msg 81 137 2 \, 2 \, 2 \, 2 \, 2 \, 3 \, 3 \, 3 \, 3 \, 3 \, 4 \, 4 \, 4 \, 4 \, 4;
#X obj 60 181 bng 15 250 50 0 empty empty empty 17 7 0 10 #fcfcfc #000000 #000000;
#X obj 81 229 countingAveragerTcl;
#X text 65 61 3 / 15;
#X text 139 47 5.5 / 10;
#X obj 257 230 countingAveragerPd;
#X text 255 198 Compare tcl code with;
#X text 256 212 the patch:;
#X obj 277 10 declare -lib tclpd;
#X connect 2 0 11 0;
#X connect 3 0 11 1;
#X connect 4 0 11 0;
#X connect 5 0 9 0;
#X connect 5 1 3 0;
#X connect 6 0 5 0;
#X connect 7 0 4 0;
#X connect 7 1 3 0;
#X connect 8 0 7 0;
#X connect 9 0 11 0;
#X connect 10 0 11 0;
#X connect 11 0 1 0;
#X connect 11 1 0 0;
