#N canvas 1945 403 513 409 10;
#X declare -lib tclpd;
#X obj 141 168 s \$0.foo;
#X msg 46 120 bar baz;
#X obj 60 320 dynreceive \$0.foo;
#X floatatom 122 123 5 0 0 0 - - - 0;
#X symbolatom 177 125 10 0 0 0 - - - 0;
#X obj 267 125 bng 15 250 50 0 empty empty empty 17 7 0 10 #fcfcfc #000000 #000000;
#X text 43 86 1) send some symbols:;
#X text 45 196 2) try to change the receive symbol:;
#X obj 60 350 print out;
#X text 39 23 Works like [receive] \, but allows to dynamically set (or clear) the receive symbol.;
#X text 139 288 <--;
#X obj 395 9 declare -lib tclpd;
#X msg 216 273 set;
#X msg 205 241 status;
#X msg 60 287 set \$1.xyz;
#X msg 42 261 set \$1.foo;
#X obj 42 217 bng 18 250 50 0 \$0 empty empty 0 -9 0 10 #fcfcfc #000000 #000000;
#X obj 42 239 f \$0;
#X obj 78 217 bng 18 250 50 0 \$0 empty empty 0 -9 0 10 #fcfcfc #000000 #000000;
#X obj 78 239 f \$0;
#X obj 312 260 bng 18 250 50 0 \$0 empty empty 0 -9 0 10 #fcfcfc #000000 #000000;
#X obj 312 282 f \$0;
#X msg 312 306 \; \$1.xyz 1 2 3;
#X msg 194 99 symbol zab;
#X connect 1 0 0 0;
#X connect 2 0 8 0;
#X connect 3 0 0 0;
#X connect 4 0 0 0;
#X connect 5 0 0 0;
#X connect 12 0 2 0;
#X connect 13 0 2 0;
#X connect 14 0 2 0;
#X connect 15 0 2 0;
#X connect 16 0 17 0;
#X connect 17 0 15 0;
#X connect 18 0 19 0;
#X connect 19 0 14 0;
#X connect 20 0 21 0;
#X connect 21 0 22 0;
#X connect 23 0 4 0;
